<?xml version="1.0" encoding="UTF-8" standalone="no"?>
<!-- Created with Inkscape (http://www.inkscape.org/) -->

<svg
   width="393"
   height="595"
   viewBox="0 0 103.98125 157.42708"
   version="1.1"
   id="svg5"
   inkscape:version="1.2.2 (b0a8486541, 2022-12-01)"
   sodipodi:docname="tutorial3.svg"
   xmlns:inkscape="http://www.inkscape.org/namespaces/inkscape"
   xmlns:sodipodi="http://sodipodi.sourceforge.net/DTD/sodipodi-0.dtd"
   xmlns="http://www.w3.org/2000/svg"
   xmlns:svg="http://www.w3.org/2000/svg">
  <sodipodi:namedview
     id="namedview7"
     pagecolor="#ffffff"
     bordercolor="#666666"
     borderopacity="1.0"
     inkscape:showpageshadow="2"
     inkscape:pageopacity="0.0"
     inkscape:pagecheckerboard="0"
     inkscape:deskcolor="#d1d1d1"
     inkscape:document-units="mm"
     showgrid="false"
     inkscape:zoom="1.5932929"
     inkscape:cx="146.86565"
     inkscape:cy="210.5702"
     inkscape:window-width="1490"
     inkscape:window-height="965"
     inkscape:window-x="0"
     inkscape:window-y="0"
     inkscape:window-maximized="1"
     inkscape:current-layer="layer1"
     showguides="true" />
  <defs
     id="defs2">
    <marker
       style="overflow:visible"
       id="TriangleStart"
       refX="0"
       refY="0"
       orient="auto-start-reverse"
       inkscape:stockid="TriangleStart"
       markerWidth="5.3244081"
       markerHeight="6.155385"
       viewBox="0 0 5.3244081 6.1553851"
       inkscape:isstock="true"
       inkscape:collect="always"
       preserveAspectRatio="xMidYMid"
       markerUnits="userSpaceOnUse">
      <path
         transform="scale(0.5)"
         style="fill:context-stroke;fill-rule:evenodd;stroke:context-stroke;stroke-width:1pt"
         d="M 5.77,0 -2.88,5 V -5 Z"
         id="path135" />
    </marker>
    <rect
       x="226.22842"
       y="39.734026"
       width="166.80649"
       height="507.68943"
       id="rect14119" />
    <rect
       x="21.407508"
       y="296.16978"
       width="213.91829"
       height="98.055281"
       id="rect2904" />
    <rect
       x="17.509058"
       y="418.2095"
       width="354.39338"
       height="137.57341"
       id="rect797" />
    <rect
       x="21.407508"
       y="296.16978"
       width="213.91829"
       height="98.055281"
       id="rect3042" />
    <rect
       x="21.407508"
       y="296.16978"
       width="213.91829"
       height="98.055281"
       id="rect3048" />
    <rect
       x="21.407508"
       y="296.16978"
       width="213.91829"
       height="98.055281"
       id="rect3054" />
    <rect
       x="21.407508"
       y="296.16978"
       width="213.91829"
       height="98.055281"
       id="rect3060" />
    <rect
       x="21.407508"
       y="296.16978"
       width="213.91829"
       height="98.055281"
       id="rect4726" />
    <rect
       x="226.22842"
       y="39.734026"
       width="166.80649"
       height="507.68943"
       id="rect33569" />
    <rect
       x="226.22842"
       y="39.734026"
       width="27.483899"
       height="17.876098"
       id="rect43475" />
    <rect
       x="226.22842"
       y="39.734026"
       width="27.483899"
       height="17.876098"
       id="rect44571" />
    <rect
       x="226.22842"
       y="39.734026"
       width="27.483899"
       height="17.876098"
       id="rect44932" />
    <rect
       x="226.22842"
       y="39.734026"
       width="27.483899"
       height="17.876098"
       id="rect45328" />
  </defs>
  <g
     inkscape:label="Layer 1"
     inkscape:groupmode="layer"
     id="layer1">
    <path
       stroke="#000000"
       fill="none"
       stroke-width="20.8868px"
       vector-effect="non-scaling-stroke"
       d="M 58.742985,99.096576 58.606098,98.643525 58.46921,98.174854 58.336879,97.721808 58.195435,97.237517 58.058547,96.768846 57.921659,96.300175 57.784771,95.831504 57.643327,95.347209 57.515553,94.909783 57.374108,94.425492 57.241778,93.972441 57.100333,93.48815 56.963445,93.019479 56.822,92.535184 56.694227,92.097762 56.548225,91.597847 56.420451,91.16042 56.279007,90.676125 56.142119,90.207454 56.005231,89.738784 55.868343,89.270113 55.736013,88.817066 55.590011,88.317151 55.45768,87.864104 55.316236,87.379809 55.179348,86.911138 55.047017,86.458092 54.910129,85.989421 54.768685,85.505126 54.636354,85.05208 54.499466,84.583409 54.362579,84.114738 54.225691,83.646067 54.09336,83.193021 l -0.146002,-0.499916 -0.13233,-0.45305 -0.136888,-0.01582 h -0.136888 l -0.136887,-0.194161 -0.136888,-0.200872 -0.141445,-0.207541 -0.13233,-0.194161 -0.136888,-0.200873 -0.136888,-0.200872 -0.136888,-0.200872 -0.141444,-0.207541 -0.136888,-0.200873 -0.132331,-0.194161 -0.13233,-0.194161 -0.146002,-0.214252 -0.132331,-0.194161 -0.141445,-0.207541 -0.13233,-0.226521 -0.136888,-0.234344 -0.136888,-0.234344 -0.136887,-0.234344 -0.136888,-0.234344 -0.141445,-0.242124 -0.136888,-0.234344 -0.136887,-0.234344 -0.136888,-0.234344 -0.127774,-0.218698 -0.146001,-0.249947 -0.132331,-0.226521 -0.141445,-0.359296 -0.13233,-0.339803 -0.141445,-0.363229 -0.132331,-0.339803 -0.136888,-0.351516 -0.136887,-0.351516 -0.132331,-0.339803 -0.146002,-0.374942 h -0.13233 -0.136888 l -0.136888,-0.09708 -0.136888,-0.100415 -0.136887,-0.100415 -0.136888,-0.100415 -0.132331,-0.09708 -0.141444,-0.103792 -0.136888,-0.100415 -0.136888,-0.100415 -0.136888,-0.100415 -0.136887,-0.100414 -0.141445,-0.103792 -0.127774,-0.09375 -0.146001,-0.107127 -0.132331,-0.09708 -0.141445,-0.103792 -0.13233,-0.09708 -0.141445,-0.103792 -0.132331,-0.09708 -0.141445,-0.103792 -0.13233,-0.09708 -0.136888,-0.100415 -0.136888,-0.100415 -0.136887,-0.100415 -0.141445,-0.103791 -0.127774,-0.09375 -0.141445,-0.103792 -0.136887,-0.100414 -0.141445,-0.103792 h -0.132331 -0.136887 -0.06846 -0.205349 L 44.095967,70.523014 43.95908,70.054344 43.822192,69.585673 43.685304,69.117002 43.543859,68.632711 43.411529,68.17966 43.270084,68.16384 H 43.137751 L 43.000864,67.710802 42.863976,67.242131 42.727088,66.77346 42.590201,66.304789 42.45787,65.851743 42.316425,65.367452 42.179537,65.351635 h -0.141444 l -0.132331,-0.453046 -0.141445,-0.484295 -0.13233,-0.453047 -0.136888,-0.468671 -0.136888,-0.468671 -0.141445,-0.484295 h -0.13233 -0.136888 l -0.132331,-0.656137 -0.141444,-0.726437 -0.141445,-0.72644 -0.132331,-0.679572 -0.136887,-0.02351 H 40.126222 39.989334 39.852446 L 39.715559,59.38771 39.578671,59.036194 39.441783,58.684678 39.304896,58.333162 39.168008,57.981646 39.035677,57.641843 38.89879,57.290327 38.757345,56.927098 38.620457,56.915556 h -0.136888 l -0.136887,-0.453046 -0.136888,-0.468671 -0.132331,-0.453051 -0.146002,-0.499915 -0.13233,-0.453047 -0.141445,-0.484295 h -0.132331 -0.141444 l -0.136888,-0.175736 -0.127774,-0.164024 -0.146002,-0.18745 -0.13233,-0.16988 -0.136888,-0.175736 -0.136888,-0.175737 -0.141444,-0.181593 -0.132331,-0.16988 -0.136888,-0.175737 -0.13233,-0.16988 -0.141445,-0.181593 -0.141445,-0.181593 -0.132331,-0.16988 -0.136887,-0.175737 -0.136888,-0.175736 -0.136888,-0.175737 -0.136887,-0.006 H 34.924489 L 34.787601,51.065096 34.650713,50.830752 34.513826,50.596408 34.376938,50.362064 34.24005,50.12772 34.098606,49.885596 33.970832,49.666898 33.82483,49.416951 33.692499,49.19043 l -0.136887,-0.234344 -0.123217,-0.210918 -0.150559,-0.25777 -0.136887,-0.0077 H 33.008061 32.871173 32.729728 L 32.601955,47.987603 32.46051,47.442772 32.323622,46.915515 32.186735,46.388263 32.049847,45.86101 31.912959,45.333754 31.776072,44.806501 31.639184,44.279244 31.502296,43.751992 31.365408,43.224735 31.233078,42.715056 31.091633,42.170225 30.959302,41.660547 30.813301,41.098142 30.68097,40.588464 30.539525,40.043633 H 30.407194 30.26575 L 30.133419,39.70383 29.996531,39.352314 29.855087,38.989085 29.722756,38.649282 29.581311,38.286053 29.448981,37.94625 29.312093,37.594734 29.175205,37.243219 29.03376,36.87999 28.90143,36.540187 28.759985,36.176958 28.627654,35.837155 28.495324,35.497352 28.353879,35.134123 28.212434,34.770894 28.075546,34.419378 28.016234,34.267067 27.806328,33.728098 27.66944,33.376582 27.532553,33.025066 27.395665,32.67355 27.25422,32.310321 27.121889,31.970518 26.980445,31.607289 h -0.132331 -0.136888 -0.136887 -0.141445 -0.127774 -0.141445 -0.13233 -0.146002 l -0.132331,-0.226521 -0.141444,-0.242167 -0.127774,-0.218698 -0.146002,-0.249947 -0.13233,-0.226521 -0.141445,-0.242167 -0.132331,-0.226521 -0.141445,-0.242167 -0.13233,-0.226521 -0.141445,-0.242167 -0.132331,-0.226521 -0.141445,-0.242167 h -0.13233 -0.136888 l -0.136888,-0.453046 -0.141444,-0.484291 -0.127774,-0.437426 -0.141445,-0.484296 -0.136887,-0.46867 -0.136888,-0.468671 -0.141452,-0.01582 h -0.132327 l -0.132327,-0.164024 -0.146016,-0.187449 -0.132327,-0.16988 -0.141452,-0.181593 -0.132327,-0.169881 -0.141452,-0.181593 -0.132327,-0.16988 -0.136891,-0.175736 -0.136891,-0.175737 -0.141452,-0.181593 -0.132327,-0.16988 -0.141452,-0.181593 -0.132327,-0.16988 -0.136888,-0.175737 -0.132327,-0.16988 -0.146016,-0.18745 H 20.551241 20.414353 L 20.277462,23.001318 20.140571,22.825582 20.003683,22.649845 19.866792,22.474108 19.729901,22.298372 19.593009,22.122635 19.456122,21.946899 19.31467,21.765306 19.182343,21.595426 19.045455,21.419689 18.908564,21.243952 18.771673,21.068216 18.639345,20.898336 18.49333,20.710886 18.365567,20.546862 18.219551,20.359413 18.087224,20.165252 17.945772,19.957711 17.813445,19.76355 17.676557,19.562678 17.539669,19.361805 17.402778,19.160933 17.270451,18.966772 17.124435,18.75252 16.996672,18.56507 16.85522,18.357529 16.718329,18.156657 16.576877,17.949116 16.44455,17.754955 16.307659,17.554082 16.175332,17.547282 H 16.03388 L 15.896989,17.423704 15.755537,17.291613 15.62321,17.168072 15.486318,17.040256 15.349427,16.912439 15.21254,16.784623 15.080212,16.661082 14.938761,16.528991 14.801873,16.401175 14.664985,16.273358 14.528094,16.145542 14.386642,16.013451 14.254315,15.88991 14.117427,15.762094 13.98054,15.634277 13.843648,15.506461 13.706757,15.378645 13.56987,15.250829 13.428418,15.118738 13.300655,14.999428 13.159203,14.867337 13.017751,14.735246 h -0.132327 -0.136891 l -0.141452,-0.46867 -0.132327,-0.453051 -0.136891,-0.468671 -0.136888,-0.468671 -0.132327,-0.453046 -0.136891,-0.468671"
       id="path62771"
       style="display:inline;stroke-width:5;stroke-dasharray:none;marker-start:url(#TriangleStart)"
       sodipodi:nodetypes="ccccccccccccccccccccccccccccccccccccccccccccccccccccccccccccccccccccccccccccccccccccccccccccccccccccccccccccccccccccccccccccccccccccccccccccccccccccccccccccccccccccccccccccccccccccccccccccccccccccccccccccccccccccccccccccccccccccccccccccccccccccccccccccccccccccccccccccccccccccccccccccccccccccccccccccccccccccccccccccccccccccccccccccccccccccccc" />
    <text
       xml:space="preserve"
       transform="matrix(0.26458333,0,0,0.26458333,0,6.6380569)"
       id="text795"
       style="font-weight:bold;font-size:16px;line-height:1.25;font-family:Roboto;-inkscape-font-specification:'Roboto Bold';text-align:center;letter-spacing:0px;white-space:pre;shape-inside:url(#rect797);display:inline"
       x="175.80469"
       y="0"><tspan
         x="155.47404"
         y="432.74232"
         id="tspan81189"><tspan
           style="font-weight:normal;font-family:Gabarito;-inkscape-font-specification:Gabarito"
           id="tspan81183">…and </tspan><tspan
           style="font-family:Gabarito;-inkscape-font-specification:'Gabarito Bold'"
           id="tspan81185">time</tspan><tspan
           style="font-weight:normal;font-family:Gabarito;-inkscape-font-specification:Gabarito"
           id="tspan81187">.</tspan></tspan></text>
    <text
       xml:space="preserve"
       transform="matrix(0.26458333,0,0,0.26458333,8.4750589,0)"
       id="text14117"
       style="font-weight:bold;font-size:10.6667px;line-height:1;font-family:Roboto;-inkscape-font-specification:'Roboto Bold';letter-spacing:0px;white-space:pre;shape-inside:url(#rect14119);display:inline"><tspan
         x="226.22852"
         y="48.089957"
         id="tspan81193"><tspan
           style="font-weight:normal;font-family:Gabarito;-inkscape-font-specification:Gabarito"
           id="tspan81191">Magdeburg
</tspan></tspan><tspan
         x="226.22852"
         y="59.112212"
         id="tspan81197"><tspan
           style="font-weight:normal;font-family:Gabarito;-inkscape-font-specification:Gabarito"
           id="tspan81195">
</tspan></tspan><tspan
         x="226.22852"
         y="70.134467"
         id="tspan81201"><tspan
           style="font-weight:normal;font-family:Gabarito;-inkscape-font-specification:Gabarito"
           id="tspan81199">
</tspan></tspan><tspan
         x="226.22852"
         y="81.156722"
         id="tspan81205"><tspan
           style="font-weight:normal;font-family:Gabarito;-inkscape-font-specification:Gabarito"
           id="tspan81203">
</tspan></tspan><tspan
         x="226.22852"
         y="92.178977"
         id="tspan81209"><tspan
           style="font-weight:normal;font-family:Gabarito;-inkscape-font-specification:Gabarito"
           id="tspan81207">
</tspan></tspan><tspan
         x="226.22852"
         y="103.20123"
         id="tspan81213"><tspan
           style="font-weight:normal;font-family:Gabarito;-inkscape-font-specification:Gabarito"
           id="tspan81211">
</tspan></tspan><tspan
         x="226.22852"
         y="114.22349"
         id="tspan81217"><tspan
           style="font-weight:normal;font-family:Gabarito;-inkscape-font-specification:Gabarito"
           id="tspan81215">
</tspan></tspan><tspan
         x="226.22852"
         y="125.24574"
         id="tspan81221"><tspan
           style="font-weight:normal;font-family:Gabarito;-inkscape-font-specification:Gabarito"
           id="tspan81219">Brandenburg
</tspan></tspan><tspan
         x="226.22852"
         y="136.268"
         id="tspan81225"><tspan
           style="font-weight:normal;font-family:Gabarito;-inkscape-font-specification:Gabarito"
           id="tspan81223">
</tspan></tspan><tspan
         x="226.22852"
         y="147.29026"
         id="tspan81229"><tspan
           style="font-weight:normal;font-family:Gabarito;-inkscape-font-specification:Gabarito"
           id="tspan81227">
</tspan></tspan><tspan
         x="226.22852"
         y="158.31252"
         id="tspan81233"><tspan
           style="font-weight:normal;font-family:Gabarito;-inkscape-font-specification:Gabarito"
           id="tspan81231">
</tspan></tspan><tspan
         x="226.22852"
         y="169.33478"
         id="tspan81237"><tspan
           style="font-weight:normal;font-family:Gabarito;-inkscape-font-specification:Gabarito"
           id="tspan81235">
</tspan></tspan><tspan
         x="226.22852"
         y="180.35705"
         id="tspan81241"><tspan
           style="font-weight:normal;font-family:Gabarito;-inkscape-font-specification:Gabarito"
           id="tspan81239">Potsdam
</tspan></tspan><tspan
         x="226.22852"
         y="191.37931"
         id="tspan81245"><tspan
           style="font-weight:normal;font-family:Gabarito;-inkscape-font-specification:Gabarito"
           id="tspan81243">
</tspan></tspan><tspan
         x="226.22852"
         y="202.40157"
         id="tspan81249"><tspan
           style="font-weight:normal;font-family:Gabarito;-inkscape-font-specification:Gabarito"
           id="tspan81247">
</tspan></tspan><tspan
         x="226.22852"
         y="213.42383"
         id="tspan81253"><tspan
           style="font-weight:normal;font-family:Gabarito;-inkscape-font-specification:Gabarito"
           id="tspan81251">
</tspan></tspan><tspan
         x="226.22852"
         y="224.4461"
         id="tspan81257"><tspan
           style="font-weight:normal;font-family:Gabarito;-inkscape-font-specification:Gabarito"
           id="tspan81255">Berlin
</tspan></tspan><tspan
         x="226.22852"
         y="235.46836"
         id="tspan81261"><tspan
           style="font-weight:normal;font-family:Gabarito;-inkscape-font-specification:Gabarito"
           id="tspan81259">
</tspan></tspan><tspan
         x="226.22852"
         y="246.49062"
         id="tspan81265"><tspan
           style="font-weight:normal;font-family:Gabarito;-inkscape-font-specification:Gabarito"
           id="tspan81263">
</tspan></tspan><tspan
         x="226.22852"
         y="257.51288"
         id="tspan81269"><tspan
           style="font-weight:normal;font-family:Gabarito;-inkscape-font-specification:Gabarito"
           id="tspan81267">
</tspan></tspan><tspan
         x="226.22852"
         y="268.53515"
         id="tspan81273"><tspan
           style="font-weight:normal;font-family:Gabarito;-inkscape-font-specification:Gabarito"
           id="tspan81271">
</tspan></tspan><tspan
         x="226.22852"
         y="279.55739"
         id="tspan81277"><tspan
           style="font-weight:normal;font-family:Gabarito;-inkscape-font-specification:Gabarito"
           id="tspan81275">
</tspan></tspan><tspan
         x="226.22852"
         y="290.57964"
         id="tspan81281"><tspan
           style="font-weight:normal;font-family:Gabarito;-inkscape-font-specification:Gabarito"
           id="tspan81279">
</tspan></tspan><tspan
         x="226.22852"
         y="301.60189"
         id="tspan81285"><tspan
           style="font-weight:normal;font-family:Gabarito;-inkscape-font-specification:Gabarito"
           id="tspan81283">
</tspan></tspan><tspan
         x="226.22852"
         y="312.62414"
         id="tspan81289"><tspan
           style="font-weight:normal;font-family:Gabarito;-inkscape-font-specification:Gabarito"
           id="tspan81287">
</tspan></tspan><tspan
         x="226.22852"
         y="323.64638"
         id="tspan81293"><tspan
           style="font-weight:normal;font-family:Gabarito;-inkscape-font-specification:Gabarito"
           id="tspan81291">
</tspan></tspan><tspan
         x="226.22852"
         y="334.66863"
         id="tspan81297"><tspan
           style="font-weight:normal;font-family:Gabarito;-inkscape-font-specification:Gabarito"
           id="tspan81295">
</tspan></tspan><tspan
         x="226.22852"
         y="345.69088"
         id="tspan81301"><tspan
           style="font-weight:normal;font-family:Gabarito;-inkscape-font-specification:Gabarito"
           id="tspan81299">
</tspan></tspan><tspan
         x="226.22852"
         y="356.71313"
         id="tspan81305"><tspan
           style="font-weight:normal;font-family:Gabarito;-inkscape-font-specification:Gabarito"
           id="tspan81303">
</tspan></tspan><tspan
         x="226.22852"
         y="367.73537"
         id="tspan81309"><tspan
           style="font-weight:normal;font-family:Gabarito;-inkscape-font-specification:Gabarito"
           id="tspan81307">
</tspan></tspan><tspan
         x="226.22852"
         y="378.75762"
         id="tspan81313"><tspan
           style="font-weight:normal;font-family:Gabarito;-inkscape-font-specification:Gabarito"
           id="tspan81311">Frankfurt (Oder)
</tspan></tspan><tspan
         x="226.22852"
         y="389.77987"
         id="tspan81317"><tspan
           style="font-weight:normal;font-family:Gabarito;-inkscape-font-specification:Gabarito"
           id="tspan81315">
</tspan></tspan><tspan
         x="226.22852"
         y="400.80212"
         id="tspan81321"><tspan
           style="font-weight:normal;font-family:Gabarito;-inkscape-font-specification:Gabarito"
           id="tspan81319">
</tspan></tspan><tspan
         x="226.22852"
         y="411.82436"
         id="tspan81325"><tspan
           style="font-weight:normal;font-family:Gabarito;-inkscape-font-specification:Gabarito"
           id="tspan81323">Cottbus</tspan></tspan></text>
    <text
       xml:space="preserve"
       transform="matrix(0.26458333,0,0,0.26458333,-50.623565,99.124602)"
       id="text43473"
       style="font-weight:bold;font-size:10.6667px;line-height:1;font-family:Roboto;-inkscape-font-specification:'Roboto Bold';letter-spacing:0px;white-space:pre;shape-inside:url(#rect43475);display:inline"><tspan
         x="226.22852"
         y="48.089957"
         id="tspan81329"><tspan
           style="font-weight:normal;font-family:Gabarito;-inkscape-font-specification:Gabarito"
           id="tspan81327">16:12
</tspan></tspan><tspan
         x="226.22852"
         y="59.112212"
         id="tspan81333"><tspan
           style="font-weight:normal;font-family:Gabarito;-inkscape-font-specification:Gabarito"
           id="tspan81331">
</tspan></tspan><tspan
         x="226.22852"
         y="65.964957"
         id="tspan81337"><tspan
           style="font-weight:normal;font-family:Gabarito;-inkscape-font-specification:Gabarito"
           id="tspan81335">
</tspan></tspan><tspan
         x="226.22852"
         y="76.987214"
         id="tspan81341"><tspan
           style="font-weight:normal;font-family:Gabarito;-inkscape-font-specification:Gabarito"
           id="tspan81339">
</tspan></tspan><tspan
         x="226.22852"
         y="88.009471"
         id="tspan81345"><tspan
           style="font-weight:normal;font-family:Gabarito;-inkscape-font-specification:Gabarito"
           id="tspan81343">
</tspan></tspan><tspan
         x="226.22852"
         y="99.031728"
         id="tspan81349"><tspan
           style="font-weight:normal;font-family:Gabarito;-inkscape-font-specification:Gabarito"
           id="tspan81347">
</tspan></tspan><tspan
         x="226.22852"
         y="110.05399"
         id="tspan81353"><tspan
           style="font-weight:normal;font-family:Gabarito;-inkscape-font-specification:Gabarito"
           id="tspan81351">
</tspan></tspan><tspan
         x="226.22852"
         y="121.07624"
         id="tspan81357"><tspan
           style="font-weight:normal;font-family:Gabarito;-inkscape-font-specification:Gabarito"
           id="tspan81355">
</tspan></tspan></text>
    <text
       xml:space="preserve"
       transform="matrix(0.26458333,0,0,0.26458333,-36.056534,99.124602)"
       id="text44569"
       style="font-weight:bold;font-size:10.6667px;line-height:1;font-family:Roboto;-inkscape-font-specification:'Roboto Bold';letter-spacing:0px;white-space:pre;shape-inside:url(#rect44571);display:inline"><tspan
         x="226.22852"
         y="48.089957"
         id="tspan81361"><tspan
           style="font-weight:normal;font-family:Gabarito;-inkscape-font-specification:Gabarito"
           id="tspan81359">17:03
</tspan></tspan><tspan
         x="226.22852"
         y="59.112212"
         id="tspan81365"><tspan
           style="font-weight:normal;font-family:Gabarito;-inkscape-font-specification:Gabarito"
           id="tspan81363">
</tspan></tspan><tspan
         x="226.22852"
         y="65.964957"
         id="tspan81369"><tspan
           style="font-weight:normal;font-family:Gabarito;-inkscape-font-specification:Gabarito"
           id="tspan81367">
</tspan></tspan><tspan
         x="226.22852"
         y="76.987214"
         id="tspan81373"><tspan
           style="font-weight:normal;font-family:Gabarito;-inkscape-font-specification:Gabarito"
           id="tspan81371">
</tspan></tspan><tspan
         x="226.22852"
         y="88.009471"
         id="tspan81377"><tspan
           style="font-weight:normal;font-family:Gabarito;-inkscape-font-specification:Gabarito"
           id="tspan81375">
</tspan></tspan><tspan
         x="226.22852"
         y="99.031728"
         id="tspan81381"><tspan
           style="font-weight:normal;font-family:Gabarito;-inkscape-font-specification:Gabarito"
           id="tspan81379">
</tspan></tspan><tspan
         x="226.22852"
         y="110.05399"
         id="tspan81385"><tspan
           style="font-weight:normal;font-family:Gabarito;-inkscape-font-specification:Gabarito"
           id="tspan81383">
</tspan></tspan><tspan
         x="226.22852"
         y="121.07624"
         id="tspan81389"><tspan
           style="font-weight:normal;font-family:Gabarito;-inkscape-font-specification:Gabarito"
           id="tspan81387">
</tspan></tspan></text>
    <text
       xml:space="preserve"
       transform="matrix(0.26458333,0,0,0.26458333,-24.094735,99.124602)"
       id="text44930"
       style="font-weight:bold;font-size:10.6667px;line-height:1;font-family:Roboto;-inkscape-font-specification:'Roboto Bold';letter-spacing:0px;white-space:pre;shape-inside:url(#rect44932);display:inline"><tspan
         x="226.22852"
         y="48.089957"
         id="tspan81393"><tspan
           style="font-weight:normal;font-family:Gabarito;-inkscape-font-specification:Gabarito"
           id="tspan81391">17:28
</tspan></tspan><tspan
         x="226.22852"
         y="59.112212"
         id="tspan81397"><tspan
           style="font-weight:normal;font-family:Gabarito;-inkscape-font-specification:Gabarito"
           id="tspan81395">
</tspan></tspan><tspan
         x="226.22852"
         y="65.964957"
         id="tspan81401"><tspan
           style="font-weight:normal;font-family:Gabarito;-inkscape-font-specification:Gabarito"
           id="tspan81399">
</tspan></tspan><tspan
         x="226.22852"
         y="76.987214"
         id="tspan81405"><tspan
           style="font-weight:normal;font-family:Gabarito;-inkscape-font-specification:Gabarito"
           id="tspan81403">
</tspan></tspan><tspan
         x="226.22852"
         y="88.009471"
         id="tspan81409"><tspan
           style="font-weight:normal;font-family:Gabarito;-inkscape-font-specification:Gabarito"
           id="tspan81407">
</tspan></tspan><tspan
         x="226.22852"
         y="99.031728"
         id="tspan81413"><tspan
           style="font-weight:normal;font-family:Gabarito;-inkscape-font-specification:Gabarito"
           id="tspan81411">
</tspan></tspan><tspan
         x="226.22852"
         y="110.05399"
         id="tspan81417"><tspan
           style="font-weight:normal;font-family:Gabarito;-inkscape-font-specification:Gabarito"
           id="tspan81415">
</tspan></tspan><tspan
         x="226.22852"
         y="121.07624"
         id="tspan81421"><tspan
           style="font-weight:normal;font-family:Gabarito;-inkscape-font-specification:Gabarito"
           id="tspan81419">
</tspan></tspan></text>
    <text
       xml:space="preserve"
       transform="matrix(0.26458333,0,0,0.26458333,-14.100576,99.124602)"
       id="text45326"
       style="font-weight:bold;font-size:10.6667px;line-height:1;font-family:Roboto;-inkscape-font-specification:'Roboto Bold';letter-spacing:0px;white-space:pre;shape-inside:url(#rect45328);display:inline"><tspan
         x="226.22852"
         y="48.089957"
         id="tspan81425"><tspan
           style="font-weight:normal;font-family:Gabarito;-inkscape-font-specification:Gabarito"
           id="tspan81423">17:54
</tspan></tspan><tspan
         x="226.22852"
         y="59.112212"
         id="tspan81429"><tspan
           style="font-weight:normal;font-family:Gabarito;-inkscape-font-specification:Gabarito"
           id="tspan81427">
</tspan></tspan><tspan
         x="226.22852"
         y="65.964957"
         id="tspan81433"><tspan
           style="font-weight:normal;font-family:Gabarito;-inkscape-font-specification:Gabarito"
           id="tspan81431">
</tspan></tspan><tspan
         x="226.22852"
         y="76.987214"
         id="tspan81437"><tspan
           style="font-weight:normal;font-family:Gabarito;-inkscape-font-specification:Gabarito"
           id="tspan81435">
</tspan></tspan><tspan
         x="226.22852"
         y="88.009471"
         id="tspan81441"><tspan
           style="font-weight:normal;font-family:Gabarito;-inkscape-font-specification:Gabarito"
           id="tspan81439">
</tspan></tspan><tspan
         x="226.22852"
         y="99.031728"
         id="tspan81445"><tspan
           style="font-weight:normal;font-family:Gabarito;-inkscape-font-specification:Gabarito"
           id="tspan81443">
</tspan></tspan><tspan
         x="226.22852"
         y="110.05399"
         id="tspan81449"><tspan
           style="font-weight:normal;font-family:Gabarito;-inkscape-font-specification:Gabarito"
           id="tspan81447">
</tspan></tspan><tspan
         x="226.22852"
         y="121.07624"
         id="tspan81453"><tspan
           style="font-weight:normal;font-family:Gabarito;-inkscape-font-specification:Gabarito"
           id="tspan81451">
</tspan></tspan></text>
  </g>
</svg>
